<?xml version="1.0" standalone="no"?>
<!DOCTYPE svg PUBLIC "-//W3C//DTD SVG 20010904//EN"
 "http://www.w3.org/TR/2001/REC-SVG-20010904/DTD/svg10.dtd">
<svg version="1.0" xmlns="http://www.w3.org/2000/svg"
 width="245.000000pt" height="245.000000pt" viewBox="0 0 245.000000 245.000000"
 preserveAspectRatio="xMidYMid meet">
<metadata>
Created by potrace 1.11, written by Peter Selinger 2001-2013
</metadata>
<g transform="translate(0.000000,245.000000) scale(0.100000,-0.100000)"
fill="#000000" stroke="none">
<path d="M552 2435 c-10 -12 -37 -13 -145 -9 -72 3 -134 8 -136 9 -2 2 -10 -2
-18 -10 -8 -8 -23 -15 -34 -15 -31 0 -117 -48 -124 -69 -3 -10 -21 -29 -39
-42 -29 -20 -33 -26 -25 -46 5 -13 5 -23 1 -23 -4 0 -8 -93 -10 -207 -2 -183
0 -209 15 -225 13 -15 15 -23 6 -36 -6 -10 -9 -38 -6 -62 2 -25 4 -55 5 -67 0
-13 5 -23 12 -23 18 0 11 -117 -9 -136 -10 -11 -13 -20 -6 -28 12 -15 8 -54
-9 -85 -9 -17 -11 -45 -6 -91 9 -105 16 -128 40 -135 18 -6 19 -8 3 -12 -22
-6 -22 -22 1 -39 16 -12 15 -13 -5 -14 -17 0 -23 6 -24 23 -1 17 -2 18 -6 4
-3 -10 1 -24 7 -32 7 -9 9 -22 5 -32 -12 -28 -16 -218 -6 -265 7 -29 6 -46 -1
-55 -13 -16 -2 -77 17 -97 13 -13 13 -20 1 -58 -16 -50 -27 -140 -16 -133 8 5
20 -28 20 -55 0 -13 -1 -13 -10 0 -7 11 -10 7 -10 -17 0 -22 5 -33 14 -33 16
0 26 -30 26 -78 0 -18 4 -31 9 -27 6 3 15 -3 21 -14 9 -18 8 -20 -7 -14 -16 6
-16 5 -4 -10 7 -9 17 -14 22 -12 4 3 13 -4 20 -16 9 -17 8 -24 -2 -31 -12 -8
-12 -10 0 -15 7 -3 22 -14 32 -24 11 -11 19 -16 19 -13 0 4 6 2 13 -3 11 -9
26 -13 60 -13 6 0 34 3 60 8 29 6 50 5 54 -1 3 -5 18 -6 34 -3 32 6 35 0 14
-28 -14 -18 -24 -19 -162 -13 -80 4 -151 11 -156 16 -12 12 -49 1 -44 -13 5
-15 2317 -21 2317 -6 0 6 -18 7 -45 3 -36 -4 -45 -3 -45 9 0 8 3 18 7 22 4 4
6 22 4 41 -2 25 3 37 18 47 12 7 21 18 21 25 0 7 9 18 20 25 11 7 20 23 20 35
0 13 4 23 9 23 5 0 12 13 16 29 7 33 -3 83 -15 76 -13 -8 -22 32 -12 52 11 20
12 24 12 51 0 14 2 15 10 2 16 -26 23 15 11 71 -8 38 -9 54 -1 59 8 5 8 11 -2
21 -14 15 -16 69 -3 108 10 33 13 81 4 87 -4 2 -7 18 -7 34 1 16 5 27 11 23 5
-3 4 5 -3 17 -9 16 -9 25 -1 33 14 14 14 114 1 122 -7 4 -8 11 -2 18 13 16 4
474 -12 587 -3 25 -3 52 1 60 3 8 5 25 4 38 -1 12 2 22 8 22 6 0 11 8 11 18 0
14 -2 15 -10 2 -7 -11 -10 -5 -11 25 -1 22 -3 58 -5 80 -5 48 3 88 16 80 5 -3
8 12 7 34 -1 22 -5 37 -8 35 -14 -8 -23 69 -19 166 2 42 4 49 10 30 5 -18 7
-8 7 33 -1 32 -4 51 -7 41 -6 -16 -7 -16 -13 -1 -3 9 -2 19 3 22 18 11 11 52
-10 58 -15 4 -19 0 -17 -17 1 -11 6 -24 11 -27 4 -4 -6 -8 -22 -11 -27 -4 -30
-2 -29 20 2 18 -6 29 -29 42 -43 25 -74 33 -74 21 0 -6 9 -11 20 -11 11 0 20
-4 20 -10 0 -5 -21 -2 -47 7 -49 16 -160 26 -176 16 -5 -3 -48 -6 -96 -8 -48
-1 -93 -5 -100 -9 -7 -5 -17 -1 -24 8 -10 13 -38 18 -132 22 -156 8 -153 8
-200 -4 -28 -8 -52 -8 -80 0 -60 16 -195 25 -237 16 -55 -12 -267 -16 -270 -6
-2 5 -16 5 -32 -2 -22 -8 -41 -7 -81 5 -64 18 -127 19 -144 3 -10 -11 -14 -10
-22 5 -12 20 -49 22 -67 2z m425 -81 c-3 -3 -12 -4 -19 -1 -8 3 -5 6 6 6 11 1
17 -2 13 -5z m-697 -254 c0 -5 -7 -10 -15 -10 -8 0 -15 5 -15 10 0 6 7 10 15
10 8 0 15 -4 15 -10z m1293 0 c17 -1 19 -2 7 -9 -20 -12 -87 -2 -69 10 8 5 20
7 27 4 8 -3 23 -5 35 -5z m282 -5 c6 -2 -24 -4 -65 -4 -43 0 -69 3 -62 8 12 7
102 5 127 -4z m-1430 -5 c3 -5 -3 -10 -15 -10 -12 0 -18 5 -15 10 3 6 10 10
15 10 5 0 12 -4 15 -10z m130 -28 c36 -7 32 -8 -48 -17 -56 -7 -86 -7 -84 0 7
21 67 28 132 17z m842 -5 c103 -2 156 -6 165 -15 6 -6 20 -12 30 -12 10 0 18
-4 18 -9 0 -4 -24 -4 -52 1 -29 4 -84 8 -123 8 -123 0 -639 11 -680 15 -22 1
-65 4 -95 5 -44 2 -49 4 -25 9 28 6 415 5 762 -2z m653 -13 c0 -8 -5 -12 -10
-9 -6 4 -8 11 -5 16 9 14 15 11 15 -7z m-80 -8 c9 -1 24 -8 33 -18 15 -14 15
-17 1 -22 -20 -8 -139 -8 -187 0 -22 4 -42 15 -48 26 -9 16 -7 18 13 13 13 -3
41 -2 63 4 22 5 55 6 74 4 19 -3 42 -6 51 -7z m-1577 -13 c13 -4 26 -31 15
-33 -2 -1 -35 -3 -74 -6 -51 -4 -74 -2 -79 7 -10 15 23 41 44 34 9 -2 23 0 31
5 8 5 22 7 30 4 8 -4 23 -9 33 -11z m1267 -17 c0 -9 -7 -12 -21 -9 -16 4 -17
8 -7 14 19 13 28 11 28 -5z m112 -40 c11 3 71 3 134 -1 l114 -7 15 -31 c16
-31 20 -50 7 -31 -5 8 -26 9 -71 3 -35 -5 -98 -7 -139 -5 -74 4 -76 5 -120 50
l-46 45 43 -15 c24 -8 52 -12 63 -8z m-1408 -2 c40 -6 46 -10 46 -30 0 -13 -9
-28 -20 -34 -11 -6 -20 -7 -20 -3 0 4 -4 3 -10 -3 -5 -5 -33 -7 -62 -4 -46 4
-53 8 -56 28 -7 48 23 59 122 46z m42 -98 c1 0 4 -15 7 -32 5 -28 3 -32 -19
-37 -14 -2 -51 -4 -82 -3 l-57 1 -3 37 c-3 32 0 37 20 40 19 3 131 -2 134 -6z
m1636 9 c8 10 11 -52 8 -132 -1 -23 4 -52 11 -64 9 -17 9 -24 0 -27 -6 -2 -11
-8 -11 -14 0 -5 -7 -16 -15 -24 -11 -11 -29 -13 -79 -8 l-65 7 -6 41 c-10 66
-26 109 -52 144 -13 17 -20 32 -16 32 4 0 0 5 -9 11 -48 28 -8 36 132 29 59
-3 98 -1 102 5z m-1624 -110 c7 -3 10 -10 6 -16 -4 -8 -3 -9 5 -5 6 4 23 0 37
-9 14 -9 28 -14 31 -11 4 3 12 1 20 -5 9 -8 13 -8 13 -1 0 7 7 9 17 5 13 -5
12 -8 -8 -16 -24 -10 -273 -16 -282 -7 -3 3 -7 18 -9 35 -2 24 1 30 22 36 24
6 122 2 148 -6z m842 -18 c36 0 74 0 85 1 36 4 60 -1 74 -15 7 -8 11 -16 8
-19 -10 -10 -407 -10 -407 1 1 35 34 46 115 38 33 -3 89 -6 125 -6z m206 -9
l19 -21 -27 18 c-29 18 -34 25 -20 25 5 0 17 -10 28 -22z m-456 2 c12 -8 12
-10 -5 -10 -15 0 -16 -3 -7 -9 8 -4 12 -17 10 -27 -3 -18 6 -19 187 -20 148
-1 199 -4 233 -17 23 -9 42 -14 42 -11 0 2 11 -3 25 -12 28 -18 47 -11 38 14
-4 13 -2 13 10 -3 9 -11 17 -23 17 -27 0 -8 5 -8 -230 -17 -107 -4 -193 -8
-190 -10 3 -1 87 -6 186 -10 188 -7 217 -14 207 -50 -6 -25 -100 -41 -179 -30
-78 11 -344 6 -344 -7 0 -5 71 -10 168 -11 92 0 207 -2 256 -3 82 -3 91 -1
108 20 10 12 18 17 18 10 0 -7 -15 -30 -32 -50 -18 -21 -40 -49 -49 -62 -16
-23 -20 -23 -185 -23 -93 0 -174 -4 -180 -8 -7 -4 -39 -4 -71 -1 l-59 6 6 37
c3 20 2 62 -2 94 -4 33 -6 62 -3 67 2 4 28 8 56 9 83 1 83 21 -1 29 -27 2 -50
7 -51 11 -5 27 -5 131 0 131 3 0 13 -5 21 -10z m518 -65 c-3 -3 -9 2 -12 12
-6 14 -5 15 5 6 7 -7 10 -15 7 -18z m-1029 -5 c62 -12 56 -8 65 -37 6 -19 2
-22 -49 -33 -31 -6 -95 -11 -143 -10 -108 2 -112 2 -112 -9 0 -4 59 -7 132 -6
167 2 178 0 178 -34 0 -17 -8 -29 -23 -36 -26 -12 -266 -13 -284 -2 -9 5 -12
35 -12 91 l2 84 96 1 c53 1 120 -3 150 -9z m1216 -60 c3 -5 1 -10 -4 -10 -6 0
-11 5 -11 10 0 6 2 10 4 10 3 0 8 -4 11 -10z m313 -42 c12 -7 21 -16 19 -22
-2 -6 -1 -21 4 -33 4 -11 4 -34 0 -50 l-8 -28 -7 38 c-6 32 -10 36 -29 32 -13
-4 -42 -2 -65 3 -32 8 -42 7 -42 -3 0 -14 43 -25 96 -25 31 0 34 -3 34 -29 0
-16 6 -31 14 -34 10 -4 13 -24 11 -82 -2 -42 -6 -79 -10 -83 -4 -4 -6 2 -5 13
6 55 7 55 -95 55 -93 0 -109 6 -81 29 8 7 12 19 9 29 -3 15 4 17 66 16 38 -1
75 -5 81 -9 8 -5 11 -1 8 11 -3 15 -13 18 -76 17 l-73 0 5 64 c10 109 9 108
69 105 29 -2 62 -8 75 -14z m-1445 -110 c-2 -18 -8 -37 -13 -41 -11 -13 -283
-17 -298 -5 -6 6 -12 23 -12 39 l0 29 163 3 c89 1 163 4 164 5 1 1 -1 -13 -4
-30z m1824 -85 c-9 -9 -37 24 -37 43 0 13 5 10 21 -10 12 -15 19 -30 16 -33z
m-1830 4 c3 -4 2 -19 -3 -34 -12 -34 -41 -41 -197 -45 l-117 -3 0 42 c0 38 2
42 28 45 52 6 281 2 289 -5z m1445 -93 c5 -3 8 -12 8 -20 0 -9 7 -22 15 -30
17 -18 20 -50 5 -59 -8 -5 -7 -11 0 -21 16 -18 17 -87 2 -92 -7 -2 -12 -10
-12 -17 0 -24 -22 -29 -135 -36 l-110 -6 112 -1 c101 -2 114 -4 133 -24 25
-27 26 -47 3 -47 -51 -2 -153 -17 -159 -24 -6 -6 108 -12 144 -8 6 1 12 -4 12
-11 0 -9 3 -9 10 2 11 18 13 6 14 -112 1 -75 -6 -98 -18 -60 -6 16 -11 17 -51
8 -48 -11 -42 -26 11 -26 39 0 69 -22 61 -44 -4 -9 -1 -16 6 -17 8 0 9 -2 1
-5 -8 -4 -10 -50 -7 -159 4 -102 2 -159 -5 -168 -8 -9 -35 -11 -109 -6 -54 4
-118 5 -143 3 -25 -2 -144 -3 -265 -3 -121 0 -227 0 -235 0 -8 0 -202 -3 -430
-5 -244 -3 -406 -1 -393 4 11 5 79 10 150 11 70 1 136 6 145 11 12 5 28 4 45
-5 17 -9 38 -11 53 -7 14 4 71 6 128 5 56 0 102 2 102 6 0 4 10 10 23 12 16 3
14 5 -10 6 -17 0 -35 6 -38 11 -4 6 -10 8 -14 6 -4 -3 -13 0 -21 6 -12 8 -12
9 2 4 10 -3 20 -1 23 4 9 15 25 12 25 -5 0 -8 7 -15 16 -15 8 0 12 4 9 10 -3
5 -1 19 5 30 9 17 21 20 88 21 42 1 91 5 107 9 19 6 -8 8 -77 7 l-108 -2 0 71
c0 85 -22 124 -70 124 -16 0 -39 4 -53 9 -24 9 -24 9 -21 158 2 139 6 189 18
201 3 3 146 7 318 10 172 2 315 6 317 8 16 14 -45 18 -312 20 -166 1 -305 2
-309 3 -18 2 -6 17 14 18 11 1 24 7 28 13 8 13 75 16 155 7 33 -4 73 -3 90 2
40 13 168 19 152 8 -7 -5 3 -5 23 -1 68 14 453 23 522 12 35 -5 37 -4 36 18
-2 26 -12 31 -24 13 -6 -10 -231 -6 -324 5 -14 2 -33 4 -42 5 -33 2 -18 21 22
27 22 4 40 11 40 16 0 5 5 6 12 2 6 -4 8 -3 5 3 -8 12 40 58 69 67 11 4 31 17
44 31 21 22 28 24 94 19 39 -3 74 -8 78 -10z m-1446 -6 c7 -1 11 -28 10 -74 0
-95 -4 -97 -180 -98 -133 -1 -160 4 -139 25 6 6 9 17 6 24 -7 19 19 24 157 26
69 2 131 5 138 7 6 2 12 15 12 28 0 24 -1 24 -24 9 -18 -12 -57 -17 -160 -19
l-136 -2 2 35 3 36 80 6 c65 5 169 4 231 -3z m4 -198 c-7 -4 -10 -17 -8 -28 5
-16 -1 -23 -25 -31 -32 -12 -244 -15 -271 -5 -10 4 -16 18 -16 40 l0 34 160 0
c121 0 160 3 161 13 0 8 2 8 6 -2 3 -7 0 -17 -7 -21z m425 -57 c-7 -25 -8 -26
-15 -8 -9 26 -1 60 13 46 5 -5 6 -22 2 -38z m1052 -35 c-3 -7 -5 -2 -5 12 0
14 2 19 5 13 2 -7 2 -19 0 -25z m-1477 -32 l0 -34 -62 -8 c-35 -4 -92 -7 -128
-5 -36 1 -61 -1 -57 -6 5 -4 62 -8 127 -8 105 0 158 -10 123 -22 -8 -3 -9 -12
-3 -29 8 -21 7 -24 -13 -24 -12 0 -83 -3 -159 -6 l-136 -6 -4 73 c-6 118 -19
109 158 109 l154 0 0 -34z m-51 -165 l63 -1 -7 -27 c-4 -16 -9 -30 -11 -33 -3
-2 -40 -10 -82 -16 l-77 -11 68 -8 c37 -4 76 -5 88 -2 17 5 18 3 8 -10 -12
-14 -91 -58 -97 -54 -1 1 -9 -2 -17 -6 -10 -6 -16 -37 -21 -100 -4 -51 -10
-91 -13 -89 -3 2 -15 0 -26 -5 -15 -6 -16 -8 -4 -8 9 -1 22 -8 29 -16 7 -8 16
-12 21 -9 5 3 9 1 9 -4 0 -6 24 -11 53 -12 79 -3 146 -7 155 -10 4 -1 11 -2
16 -1 4 1 18 -2 30 -5 20 -7 20 -8 -4 -15 -14 -4 -54 -7 -90 -8 -100 -2 -200
-13 -200 -22 0 -5 9 -9 21 -9 11 0 17 -4 14 -10 -3 -5 -43 -10 -89 -10 -45 0
-87 -5 -92 -10 -7 -7 -9 7 -7 47 5 68 10 86 21 79 4 -2 14 -1 22 4 13 8 12 11
-3 23 -13 9 -18 23 -15 42 l3 29 69 -3 c52 -2 67 1 64 11 -3 8 -24 13 -64 13
l-59 0 -3 38 -3 37 65 0 c36 0 66 3 66 8 0 4 -24 7 -53 7 -84 1 -107 10 -107
45 0 16 -5 41 -11 57 -7 19 -7 29 0 31 6 2 11 12 11 22 0 10 5 20 11 22 10 3
107 3 248 -1z m-383 -228 c-10 -10 -19 5 -10 18 6 11 8 11 12 0 2 -7 1 -15 -2
-18z m511 -159 c-3 -3 -12 -4 -19 -1 -8 3 -5 6 6 6 11 1 17 -2 13 -5z m-47
-14 c0 -5 -7 -10 -15 -10 -8 0 -15 5 -15 10 0 6 7 10 15 10 8 0 15 -4 15 -10z
m207 -16 c-3 -3 -12 -4 -19 -1 -8 3 -5 6 6 6 11 1 17 -2 13 -5z m-24 -21 c-7
-2 -19 -2 -25 0 -7 3 -2 5 12 5 14 0 19 -2 13 -5z m1527 -113 c0 -5 -4 -10
-10 -10 -5 0 -10 5 -10 10 0 6 5 10 10 10 6 0 10 -4 10 -10z m-1789 -191 c16
-31 -1 -43 -48 -34 -21 5 -31 10 -21 12 9 2 20 13 23 24 8 25 31 24 46 -2z
m1709 -25 c0 -9 -11 -14 -30 -14 -27 0 -29 2 -19 19 14 21 49 17 49 -5z m40
22 c0 -2 -7 -7 -16 -10 -8 -3 -12 -2 -9 4 6 10 25 14 25 6z m-1503 -32 c-3 -3
-12 -4 -19 -1 -8 3 -5 6 6 6 11 1 17 -2 13 -5z"/>
<path d="M2020 1810 c-8 -5 -48 -10 -88 -10 -55 0 -73 -3 -69 -12 2 -9 19 -12
48 -10 24 2 63 -1 87 -6 42 -10 42 -10 42 19 0 33 0 32 -20 19z"/>
<path d="M1890 1693 c0 -12 92 -28 126 -21 10 2 20 10 22 19 3 14 -8 16 -72
15 -51 -1 -76 -5 -76 -13z"/>
<path d="M1000 1415 c0 -17 6 -25 18 -25 190 -4 422 -1 431 4 21 14 11 25 -16
17 -53 -15 -356 -1 -391 18 -32 17 -42 13 -42 -14z"/>
<path d="M1771 1211 c-8 -5 -11 -16 -8 -25 5 -13 11 -14 34 -4 16 7 75 12 133
13 61 0 106 4 108 10 3 13 -247 18 -267 6z"/>
<path d="M1665 1010 c7 -12 42 -12 70 0 15 6 8 9 -28 9 -30 1 -46 -3 -42 -9z"/>
<path d="M1010 915 c0 -12 19 -15 108 -14 l107 2 -95 8 c-52 5 -100 11 -107
13 -7 3 -13 -1 -13 -9z"/>
<path d="M1335 910 c-18 -8 -17 -9 8 -9 16 -1 26 3 22 9 -3 6 -7 10 -8 9 -1 0
-11 -4 -22 -9z"/>
<path d="M1420 909 c63 -11 152 -10 170 1 10 7 -22 9 -100 9 -91 -1 -106 -3
-70 -10z"/>
<path d="M1708 903 c23 -2 59 -2 80 0 20 2 1 4 -43 4 -44 0 -61 -2 -37 -4z"/>
<path d="M1020 819 c0 -5 11 -9 25 -9 14 0 25 4 25 9 0 5 -11 9 -25 9 -14 0
-25 -4 -25 -9z"/>
<path d="M1868 820 c-127 -8 -100 -20 45 -20 109 0 137 3 137 14 0 11 -10 12
-47 5 -26 -5 -49 -6 -52 -2 -3 5 -41 6 -83 3z"/>
<path d="M1100 810 c20 -13 77 -13 85 0 4 6 -14 10 -47 10 -38 0 -49 -3 -38
-10z"/>
<path d="M1210 807 c0 -4 54 -7 119 -5 66 1 117 6 114 10 -6 11 -233 6 -233
-5z"/>
<path d="M1655 810 c-4 -6 17 -10 54 -10 34 0 61 4 61 10 0 6 -24 10 -54 10
-30 0 -58 -4 -61 -10z"/>
<path d="M1558 803 c12 -2 32 -2 45 0 12 2 2 4 -23 4 -25 0 -35 -2 -22 -4z"/>
<path d="M1016 724 c-3 -9 -6 -16 -6 -17 0 -1 54 -1 120 1 66 2 118 7 115 12
-3 4 -51 9 -106 9 -55 1 -104 3 -109 6 -4 3 -11 -2 -14 -11z"/>
<path d="M1798 724 c-2 -1 -31 -4 -66 -7 -91 -6 -88 -17 4 -16 89 0 138 12 91
21 -14 3 -28 4 -29 2z"/>
<path d="M1448 703 c12 -2 30 -2 40 0 9 3 -1 5 -23 4 -22 0 -30 -2 -17 -4z"/>
<path d="M1018 663 c7 -3 16 -2 19 1 4 3 -2 6 -13 5 -11 0 -14 -3 -6 -6z"/>
<path d="M1935 629 c-173 -13 -179 -16 -40 -19 72 -1 133 -2 138 -1 17 3 6
-59 -12 -69 -11 -5 -111 -12 -222 -15 -112 -3 -205 -8 -208 -10 -2 -3 100 -5
227 -5 l232 0 0 65 c0 36 -1 64 -2 64 -2 -1 -52 -6 -113 -10z"/>
<path d="M1130 620 c0 -5 14 -10 32 -10 36 0 35 4 -4 14 -17 4 -28 2 -28 -4z"/>
<path d="M1565 620 c-56 -6 -58 -6 -20 -10 60 -7 141 0 124 11 -8 5 -21 8 -29
7 -8 -1 -42 -4 -75 -8z"/>
<path d="M1397 613 c18 -2 50 -2 70 0 21 2 7 4 -32 4 -38 0 -55 -2 -38 -4z"/>
<path d="M1160 518 c0 -9 256 -15 339 -7 79 7 51 9 -172 12 -92 1 -167 -1
-167 -5z"/>
<path d="M2030 439 c-8 -5 -45 -6 -82 -3 -74 7 -138 -1 -138 -18 0 -7 31 -8
100 -3 84 5 105 4 125 -9 24 -16 25 -16 25 8 0 29 -11 38 -30 25z"/>
<path d="M1580 425 l-85 -13 90 0 c100 0 234 14 160 17 -22 1 -49 3 -60 5 -11
2 -58 -2 -105 -9z"/>
<path d="M1403 413 c15 -2 37 -2 50 0 12 2 0 4 -28 4 -27 0 -38 -2 -22 -4z"/>
<path d="M2016 356 l-29 -13 31 -5 c26 -4 32 -1 32 14 0 10 -1 18 -2 17 -2 0
-16 -6 -32 -13z"/>
<path d="M1695 341 l-60 -6 40 -8 c50 -9 165 -5 165 5 0 4 -6 8 -14 8 -7 0
-26 2 -42 4 -16 2 -56 0 -89 -3z"/>
<path d="M1405 330 c-4 -6 17 -10 54 -10 34 0 61 4 61 10 0 6 -24 10 -54 10
-30 0 -58 -4 -61 -10z"/>
<path d="M1548 333 c6 -2 18 -2 25 0 6 3 1 5 -13 5 -14 0 -19 -2 -12 -5z"/>
<path d="M1898 333 c6 -2 18 -2 25 0 6 3 1 5 -13 5 -14 0 -19 -2 -12 -5z"/>
<path d="M280 900 c0 -13 11 -13 30 0 12 8 11 10 -7 10 -13 0 -23 -4 -23 -10z"/>
<path d="M280 701 c0 -5 9 -7 20 -4 11 3 20 7 20 9 0 2 -9 4 -20 4 -11 0 -20
-4 -20 -9z"/>
<path d="M348 703 c12 -2 32 -2 45 0 12 2 2 4 -23 4 -25 0 -35 -2 -22 -4z"/>
<path d="M290 325 c0 -23 3 -26 23 -21 12 3 39 6 60 6 21 0 36 4 33 9 -3 5
-23 7 -44 4 -28 -4 -43 0 -55 12 -16 15 -17 15 -17 -10z"/>
<path d="M2188 2403 c7 -3 16 -2 19 1 4 3 -2 6 -13 5 -11 0 -14 -3 -6 -6z"/>
<path d="M36 2324 c-8 -22 -4 -25 11 -9 7 8 9 16 4 19 -5 3 -12 -1 -15 -10z"/>
<path d="M2401 2154 c0 -11 3 -14 6 -6 3 7 2 16 -1 19 -3 4 -6 -2 -5 -13z"/>
<path d="M2402 2070 c0 -14 2 -19 5 -12 2 6 2 18 0 25 -3 6 -5 1 -5 -13z"/>
<path d="M2411 1824 c0 -11 3 -14 6 -6 3 7 2 16 -1 19 -3 4 -6 -2 -5 -13z"/>
<path d="M50 239 c0 -5 5 -7 10 -4 6 3 10 8 10 11 0 2 -4 4 -10 4 -5 0 -10 -5
-10 -11z"/>
<path d="M2367 113 c-4 -3 -7 -11 -7 -17 0 -6 5 -5 12 2 6 6 9 14 7 17 -3 3
-9 2 -12 -2z"/>
<path d="M70 69 c0 -11 5 -17 10 -14 6 3 10 13 10 21 0 8 -4 14 -10 14 -5 0
-10 -9 -10 -21z"/>
<path d="M140 60 c0 -5 7 -10 15 -10 8 0 15 5 15 10 0 6 -7 10 -15 10 -8 0
-15 -4 -15 -10z"/>
</g>
</svg>
